<svg width="27" height="27" viewBox="0 0 27 27" fill="none" xmlns="http://www.w3.org/2000/svg">
<g clip-path="url(#clip0_419_303)">
<path fill-rule="evenodd" clip-rule="evenodd" d="M17.2679 7.96354C16.1647 7.22643 14.8677 6.833 13.541 6.833V0.124756C16.1945 0.124756 18.7884 0.911619 20.9948 2.38584C23.2011 3.86006 24.9207 5.95543 25.9362 8.40695C26.9516 10.8585 27.2173 13.5561 26.6997 16.1587C26.182 18.7612 24.9042 21.1518 23.0279 23.0281C21.1516 24.9045 18.7609 26.1822 16.1584 26.6999C13.5559 27.2176 10.8582 26.9519 8.40671 25.9365C5.95519 24.921 3.85981 23.2014 2.3856 20.995C0.911375 18.7887 0.124512 16.1947 0.124512 13.5412H6.83275C6.83275 14.868 7.22619 16.165 7.96329 17.2681C8.70039 18.3713 9.74809 19.2311 10.9739 19.7388C12.1996 20.2466 13.5484 20.3794 14.8497 20.1205C16.151 19.8617 17.3462 19.2228 18.2845 18.2847C19.2226 17.3465 19.8615 16.1512 20.1203 14.8499C20.3792 13.5487 20.2463 12.1999 19.7386 10.9741C19.2309 9.74833 18.3711 8.70064 17.2679 7.96354Z" fill="#4F46E5"/>
<path fill-rule="evenodd" clip-rule="evenodd" d="M6.83275 0.124759C6.83275 1.0057 6.65924 1.87801 6.32212 2.69189C5.98499 3.50577 5.49087 4.24528 4.86795 4.8682C4.24504 5.49112 3.50553 5.98524 2.69164 6.32237C1.87776 6.65948 1.00545 6.833 0.124512 6.833L0.124512 13.5412C1.88639 13.5412 3.63101 13.1942 5.25878 12.52C6.88655 11.8457 8.36558 10.8575 9.61137 9.61162C10.8572 8.36583 11.8455 6.8868 12.5197 5.25902C13.194 3.63126 13.541 1.88663 13.541 0.124756L6.83275 0.124759Z" fill="#4F46E5"/>
</g>
<defs>
<clipPath id="clip0_419_303">
<rect width="26.833" height="26.833" fill="white" transform="translate(0.124512 0.124756)"/>
</clipPath>
</defs>
</svg>
